<svg xmlns="http://www.w3.org/2000/svg" xmlns:xlink="http://www.w3.org/1999/xlink">
 <symbol xmlns="http://www.w3.org/2000/svg" id="cartPlus"  fill="none"><path fill-rule="evenodd" clip-rule="evenodd" d="M9 20.75a.25.25 0 100 .5.25.25 0 000-.5zM7.25 21a1.75 1.75 0 113.5 0 1.75 1.75 0 01-3.5 0zM20 20.75a.25.25 0 100 .5.25.25 0 000-.5zm-1.75.25a1.75 1.75 0 113.5 0 1.75 1.75 0 01-3.5 0zM19.5 2.75a.75.75 0 00-1.5 0V6h-3.25a.75.75 0 000 1.5H18v3.25a.75.75 0 001.5 0V7.5h3.25a.75.75 0 000-1.5H19.5V2.75z" fill="#fff"/><path d="M21.95 7.5l.143-.75H14a.75.75 0 01.75-.75H18v-.75h1.5V6h3.25a.75.75 0 010 1.5h-.8z" fill="#fff"/><path d="M12 6.75H6.916l1.5 7.494a1.25 1.25 0 001.25 1.006h9.748a1.25 1.25 0 001.25-1.004v-.002L21.57 9.5h1.181c.119 0 .236-.008.35-.022l-.964 5.058a2.75 2.75 0 01-2.743 2.214H9.687a2.75 2.75 0 01-2.742-2.213L5.273 6.183a.747.747 0 01-.015-.07L4.385 1.75H1a.75.75 0 010-1.5h4a.75.75 0 01.735.603l.88 4.397h5.83A2.738 2.738 0 0012 6.75z" fill="#fff"/></symbol>

  <symbol viewBox="0 0 12 12" enable-background="new 0 0 12 12"  version="1.1" xml:space="preserve" id="carTotal" xmlns="http://www.w3.org/2000/svg" xmlns:xlink="http://www.w3.org/1999/xlink" fill="#000000"><g id="SVGRepo_bgCarrier" stroke-width="0"></g><g id="SVGRepo_tracerCarrier" stroke-linecap="round" stroke-linejoin="round"></g><g id="SVGRepo_iconCarrier"><path d="M11.5,8L12,3L2.1803589,2.0935669L1.9477539,0H0v1h1.0522461L1.953064,9.1067505 C1.3963623,9.3261108,1,9.866272,1,10.5C1,11.3271484,1.6728516,12,2.5,12S4,11.3271484,4,10.5 c0-0.1761475-0.0360718-0.3428345-0.0921021-0.5h4.1842041C8.0360718,10.1571655,8,10.3238525,8,10.5 C8,11.3271484,8.6728516,12,9.5,12s1.5-0.6728516,1.5-1.5S10.3271484,9,9.5,9H2.9476318l-0.111145-1H11.5z M2.5,11 C2.2241211,11,2,10.7758789,2,10.5c0-0.2634277,0.2062378-0.473938,0.4649048-0.4929199l0.0452881-0.0050049 C2.7811279,10.0078125,3,10.2277222,3,10.5C3,10.7758789,2.7758789,11,2.5,11z M10,10.5c0,0.2758789-0.2241211,0.5-0.5,0.5 S9,10.7758789,9,10.5S9.2241211,10,9.5,10S10,10.2241211,10,10.5z" fill="#1D1D1B"></path></g></symbol>
</svg>