<svg xmlns="http://www.w3.org/2000/svg" xmlns:xlink="http://www.w3.org/1999/xlink" viewBox="0 0 256 256" width="51px" height="51px">
  <style type="text/css">
    @keyframes ld-pulse
{
  0% {
    animation-timing-function: cubic-bezier(0.0413,0.3905,0.5086,0.6902);
    transform: scale(1);
  }
  24.3% {
    animation-timing-function: cubic-bezier(0.2248,0.6332,0.5246,1);
    transform: scale(0.8458);
  }
  55% {
    animation-timing-function: cubic-bezier(0.3036,0.3393,0.655,0.6144);
    transform: scale(0.8022);
  }
  70.2% {
    animation-timing-function: cubic-bezier(0.4464,0.2728,0.5562,0.7288);
    transform: scale(0.8294);
  }
  82.3% {
    animation-timing-function: cubic-bezier(0.6826,0.1845,1,0.7358);
    transform: scale(0.869);
  }
  100% {
    transform: scale(1);
  }
}
.ld.ld-pulse {
  animation: ld-pulse 0.5s infinite;
}
    @keyframes ld-move {
      0% { transform: translate(0,0) }
      100% { transform: translate(256px,0) }
    }
  </style>
  <defs><g id="id-0.1360758191471918">
    
<!-- Generator: Adobe Illustrator 21.0.0, SVG Export Plug-In . SVG Version: 6.00 Build 0)  -->


<path fill="#000" d="M255.626-0.277C222.903-32.828,177.803-52.949,128-52.949S33.097-32.828,0.374-0.277  C0.467-0.183,0.563-0.093,0.657,0c-0.094,0.093-0.19,0.183-0.283,0.277C33.097,32.828,78.197,52.949,128,52.949  s94.903-20.121,127.626-52.672c-0.093-0.093-0.19-0.184-0.283-0.277C255.437-0.093,255.533-0.183,255.626-0.277z"/>
<path fill="#000" d="M0.277,0.374C0.183,0.467,0.093,0.563,0,0.657c-0.093-0.094-0.183-0.19-0.277-0.283  C-32.828,33.097-52.949,78.197-52.949,128s20.121,94.903,52.672,127.626c0.093-0.093,0.184-0.19,0.277-0.283  c0.093,0.094,0.183,0.19,0.277,0.283C32.828,222.903,52.949,177.803,52.949,128S32.828,33.097,0.277,0.374z"/>


  </g></defs>
  <rect fill="dodgerblue" width="256" height="256"/>
  <g>
    <use xlink:href="#id-0.1360758191471918" x="-256" y="-256"/><use xlink:href="#id-0.1360758191471918" x="0" y="-256"/><use xlink:href="#id-0.1360758191471918" x="256" y="-256"/><use xlink:href="#id-0.1360758191471918" x="-256" y="0"/><use xlink:href="#id-0.1360758191471918" x="0" y="0"/><use xlink:href="#id-0.1360758191471918" x="256" y="0"/><use xlink:href="#id-0.1360758191471918" x="-256" y="256"/><use xlink:href="#id-0.1360758191471918" x="0" y="256"/><use xlink:href="#id-0.1360758191471918" x="256" y="256"/>
    <animateTransform attributeName="transform" type="translate" dur="4s" repeatCount="indefinite" keyTimes="0;1" values="0;256"/>
  </g>
</svg>